<?xml version="1.0" encoding="UTF-8"?>
<svg id="Layer_1" data-name="Layer 1" xmlns="http://www.w3.org/2000/svg" viewBox="0 0 326.5 294">
  <defs>
    <style>
      .cls-1, .cls-2, .cls-3, .cls-4, .cls-5 {
        stroke-width: 0px;
      }

      .cls-2 {
        fill: #ffd445;
      }

      .cls-3 {
        fill: #fbb03b;
      }

      .cls-4 {
        fill: #f2f2f2;
      }

      .cls-5 {
        fill: #eb9500;
      }
    </style>
  </defs>
  <rect class="cls-2" x="119.07" y="47.54" width="85.72" height="26.47" rx="10.5" ry="10.5" transform="translate(52.08 -72.82) rotate(30)"/>
  <rect class="cls-2" x="81.73" y="56.71" width="85.72" height="26.47" rx="10.5" ry="10.5" transform="translate(16.04 -22.96) rotate(11.25)"/>
  <rect class="cls-5" x="63.73" y="241.71" width="85.72" height="26.47" rx="10.5" ry="10.5" transform="translate(-48.49 26.24) rotate(-11.45)"/>
  <rect class="cls-5" x="111.95" y="250.43" width="85.72" height="26.47" rx="10.5" ry="10.5" transform="translate(-111.09 112.73) rotate(-30)"/>
  <path class="cls-3" d="m127.26,159.11c0-14.83-26.14-26.96-59.21-27.94-.79-.02-1.55-.29-2.18-.77l-35.63-27.61c-8.01-6.21-19.53-4.75-25.74,3.26h0c-6.21,8.01-4.75,19.53,3.26,25.74l5.61,4.35c2.08,1.61,1.89,4.83-.38,6.16-8,4.68-12.74,10.5-12.74,16.82s4.92,12.36,13.19,17.09c2.36,1.35,2.47,4.71.25,6.27l-6.26,4.4c-8.29,5.82-10.29,17.27-4.47,25.56h0c5.82,8.29,17.27,10.29,25.56,4.47l41.83-29.38c.57-.4,1.23-.63,1.92-.67,31.04-1.84,54.98-13.55,54.98-27.74Z"/>
  <path class="cls-2" d="m91.98,158.78c0-10.51-14.96-19.12-33.89-19.81-.45-.02-.89-.21-1.25-.55l-20.39-19.58c-4.58-4.4-11.18-3.37-14.73,2.31h0c-3.55,5.68-2.72,13.85,1.87,18.25l3.21,3.08c1.19,1.14,1.08,3.42-.22,4.37-4.58,3.32-7.29,7.45-7.29,11.92s2.82,8.76,7.55,12.12c1.35.95,1.41,3.34.14,4.45l-3.58,3.12c-4.75,4.13-5.89,12.24-2.56,18.12h0c3.33,5.88,9.88,7.3,14.63,3.17l23.94-20.83c.32-.28.71-.44,1.1-.47,17.76-1.3,31.47-9.61,31.47-19.67Z"/>
  <g>
    <polygon class="cls-1" points="316.95 89.6 306.72 157.74 315.83 158.49 316.95 89.6"/>
    <ellipse class="cls-1" cx="315.41" cy="109.14" rx="6.94" ry="4.92" transform="translate(180.6 414.46) rotate(-85.26)"/>
  </g>
  <path class="cls-3" d="m297.14,153.13c-18.33-31.13-40.91-55.73-66.26-71.33-.72,2.31-2.85,4.04-5.79,2.97-2.99-1.09-5.95-2.62-8.58-4.4-2.93-1.98-5.47-3.3-8.7-4.66-2.48-1.04-4.32-3.28-3.49-6.15.03-.12.08-.23.12-.35-12.06-4.13-24.58-6.31-37.41-6.31-51.28,0-97.44,34.74-130.11,90.23-3.68,6.26-3.68,13.79,0,20.05,32.67,55.49,78.83,90.23,130.11,90.23s97.44-34.74,130.11-90.23c3.68-6.26,3.68-13.79,0-20.05Z"/>
  <path class="cls-2" d="m159.76,101.72c32.29,0,61.48,8.19,82.5,21.4-7.34-25.05-41.47-44-82.5-44s-75.16,18.95-82.5,44c21.02-13.2,50.21-21.4,82.5-21.4Z"/>
  <circle class="cls-4" cx="241.04" cy="141.15" r="33.42"/>
  <circle class="cls-1" cx="256.29" cy="142.9" r="17.03"/>
  <path class="cls-5" d="m137.14,231.51c-28.84-9.95-53.04-24.4-68.78-39.67.8,18.93,26.94,42.06,63.59,54.71,36.64,12.65,71.49,10.56,83.79-3.84-21.81,2.31-49.76-1.24-78.6-11.2Z"/>
  <path class="cls-1" d="m266.17,195.1c-.14.21-.29.41-.43.61-.19.27.14-.17.14-.18-.09.11-.18.22-.27.33-.35.41-.71.8-1.09,1.18-.33.33-.68.63-1.04.94-.11.09-.22.18-.34.27.01,0,.45-.33.18-.14-.24.17-.47.34-.71.51-.89.61-1.84,1.14-2.81,1.61-.24.12-.49.22-.73.33-.31.14.16-.07.18-.08-.14.06-.29.12-.43.17-.51.2-1.03.39-1.56.56-1.12.37-2.26.67-3.42.91-.57.12-1.15.23-1.73.33-.29.05-.59.09-.88.14.66-.1-.3.04-.48.06-2.52.28-5.06.36-7.6.27-1.28-.04-2.56-.13-3.84-.25-.64-.06-1.29-.14-1.93-.21-.36-.04.06.01.11.02-.18-.02-.37-.05-.55-.08-.37-.05-.73-.11-1.1-.17-2.58-.42-5.15-.98-7.67-1.69-1.21-.34-2.4-.71-3.58-1.12-.58-.2-1.15-.41-1.73-.63-.28-.11-.56-.22-.84-.33-.18-.07-1.04-.43-.47-.18-2.11-.89-4.16-1.93-6.11-3.13-.5-.31-1-.64-1.49-.98-.24-.16-.47-.34-.7-.5-.56-.4.3.26-.23-.17-.82-.67-1.61-1.37-2.33-2.15-.17-.18-.33-.37-.5-.56-.1-.12-.57-.72-.28-.33s-.15-.21-.23-.34c-.13-.19-.25-.38-.37-.58-.22-.37-.37-.83-.62-1.17.04.06.19.54,0-.03-.07-.22-.15-.45-.21-.68-1.05-3.71-6.84-2.13-5.79,1.6,1.2,4.23,4.48,7.41,7.95,9.89,4.15,2.97,9.01,5.01,13.85,6.55,10.4,3.3,22.43,4.67,33.07,1.69,5.48-1.54,10.51-4.47,13.75-9.25.91-1.34.26-3.32-1.08-4.1-1.48-.86-3.19-.27-4.1,1.08h0Z"/>
  <path class="cls-5" d="m106.1,192.93c-3.55-.11-6.67-2.81-8.86-7.09.56,8,4.13,14.16,8.64,14.29s8.44-5.79,9.49-13.74c-2.44,4.14-5.72,6.65-9.27,6.54Z"/>
  <path class="cls-5" d="m125.5,205.93c-3.55-.11-6.67-2.81-8.86-7.09.56,8,4.13,14.16,8.64,14.29,4.51.14,8.44-5.79,9.49-13.74-2.44,4.14-5.72,6.65-9.27,6.54Z"/>
  <path class="cls-5" d="m147.72,220.66c-3.55-.11-6.67-2.81-8.86-7.09.56,8,4.13,14.16,8.64,14.29,4.51.14,8.44-5.79,9.49-13.74-2.44,4.14-5.72,6.65-9.27,6.54Z"/>
  <path class="cls-5" d="m147.72,196.66c-3.55-.11-6.67-2.81-8.86-7.09.56,8,4.13,14.16,8.64,14.29,4.51.14,8.44-5.79,9.49-13.74-2.44,4.14-5.72,6.65-9.27,6.54Z"/>
  <path class="cls-5" d="m168.72,210.66c-3.55-.11-6.67-2.81-8.86-7.09.56,8,4.13,14.16,8.64,14.29,4.51.14,8.44-5.79,9.49-13.74-2.44,4.14-5.72,6.65-9.27,6.54Z"/>
  <path class="cls-5" d="m186.72,225.66c-3.55-.11-6.67-2.81-8.86-7.09.56,8,4.13,14.16,8.64,14.29,4.51.14,8.44-5.79,9.49-13.74-2.44,4.14-5.72,6.65-9.27,6.54Z"/>
  <path class="cls-5" d="m180.72,193.66c-3.55-.11-6.67-2.81-8.86-7.09.56,8,4.13,14.16,8.64,14.29,4.51.14,8.44-5.79,9.49-13.74-2.44,4.14-5.72,6.65-9.27,6.54Z"/>
  <path class="cls-5" d="m198.72,207.66c-3.55-.11-6.67-2.81-8.86-7.09.56,8,4.13,14.16,8.64,14.29,4.51.14,8.44-5.79,9.49-13.74-2.44,4.14-5.72,6.65-9.27,6.54Z"/>
  <path class="cls-5" d="m125.5,178.66c-3.55-.11-6.67-2.81-8.86-7.09.56,8,4.13,14.16,8.64,14.29s8.44-5.79,9.49-13.74c-2.44,4.14-5.72,6.65-9.27,6.54Z"/>
  <path class="cls-5" d="m90.5,174.66c-3.55-.11-6.67-2.81-8.86-7.09.56,8,4.13,14.16,8.64,14.29s8.44-5.79,9.49-13.74c-2.44,4.14-5.72,6.65-9.27,6.54Z"/>
  <path class="cls-5" d="m157.5,174.66c-3.55-.11-6.67-2.81-8.86-7.09.56,8,4.13,14.16,8.64,14.29s8.44-5.79,9.49-13.74c-2.44,4.14-5.72,6.65-9.27,6.54Z"/>
  <path class="cls-5" d="m110.5,158.66c-3.55-.11-6.67-2.81-8.86-7.09.56,8,4.13,14.16,8.64,14.29s8.44-5.79,9.49-13.74c-2.44,4.14-5.72,6.65-9.27,6.54Z"/>
  <path class="cls-5" d="m78.72,151.82c-3.55-.11-6.67-2.81-8.86-7.09.56,8,4.13,14.16,8.64,14.29s8.44-5.79,9.49-13.74c-2.44,4.14-5.72,6.65-9.27,6.54Z"/>
  <path class="cls-1" d="m220.51,80.14l-64.94-50.22-11.72,35.14c26.76,3.52,51.23,10.14,73.59,20.07,21.2,9.41,40.52,21.8,58.13,37.33l14.93-32.78-69.99-9.53Z"/>
  <polygon class="cls-1" points="325.91 92.44 219.86 74.49 127.26 2.11 233.31 20.05 325.91 92.44"/>
</svg>